<?xml version="1.0" encoding="UTF-8" standalone="no"?>
<svg
   xmlns:dc="http://purl.org/dc/elements/1.1/"
   xmlns:cc="http://creativecommons.org/ns#"
   xmlns:rdf="http://www.w3.org/1999/02/22-rdf-syntax-ns#"
   xmlns:svg="http://www.w3.org/2000/svg"
   xmlns="http://www.w3.org/2000/svg"
   xmlns:sodipodi="http://sodipodi.sourceforge.net/DTD/sodipodi-0.dtd"
   xmlns:inkscape="http://www.inkscape.org/namespaces/inkscape"
   inkscape:version="1.0 (4035a4fb49, 2020-05-01)"
   sodipodi:docname="circles-background.svg"
   width="78.031998mm"
   height="102.961mm"
   viewBox="0 0 78.031998 102.961"
   version="1.1"
   id="svg2880">
  <sodipodi:namedview
     inkscape:current-layer="g2839"
     inkscape:window-maximized="1"
     inkscape:window-y="-8"
     inkscape:window-x="-8"
     inkscape:cy="192.43498"
     inkscape:cx="83.020436"
     inkscape:zoom="1.2174455"
     showgrid="false"
     id="namedview13"
     inkscape:window-height="837"
     inkscape:window-width="1600"
     inkscape:pageshadow="2"
     inkscape:pageopacity="0"
     guidetolerance="10"
     gridtolerance="10"
     objecttolerance="10"
     borderopacity="1"
     bordercolor="#666666"
     pagecolor="#ffffff" />
  <defs
     id="defs2874">
    <clipPath
       id="clipPath2596"
       clipPathUnits="userSpaceOnUse">
      <rect
         y="433.45847"
         x="383.18573"
         height="54.485775"
         width="54.485775"
         id="rect2598"
         style="opacity:0.506452;fill:#ff0000;stroke:#dbf3ed;stroke-width:0.0183862;stop-color:#000000" />
    </clipPath>
  </defs>
  <metadata
     id="metadata2877">
    <rdf:RDF>
      <cc:Work
         rdf:about="">
        <dc:format>image/svg+xml</dc:format>
        <dc:type
           rdf:resource="http://purl.org/dc/dcmitype/StillImage" />
        <dc:title />
      </cc:Work>
    </rdf:RDF>
  </metadata>
  <g
     id="layer1">
    <g
       transform="translate(-1901.4461,-465.18787)"
       id="g2839">
      <ellipse
         style="opacity:1;fill:none;fill-opacity:1;stroke:#262626;stroke-width:0.264637;stroke-miterlimit:4;stroke-dasharray:none;stroke-opacity:1;stop-color:#000000"
         id="path2749"
         cx="1318.8701"
         cy="1500.0797"
         rx="15.29493"
         ry="12.588197"
         transform="matrix(0.8388385,-0.54438035,0.56797532,0.82304558,0,0)" />
      <path
         id="ellipse2760"
         style="opacity:1;fill:none;fill-opacity:1;stroke:#262626;stroke-width:1;stroke-miterlimit:4;stroke-dasharray:none;stroke-opacity:1;stop-color:#000000"
         d="m 7481.0859,1890.041 c -15.1176,-16.6027 -38.0604,-25.8568 -63.7421,-25.7109 -21.764,0.125 -44.0934,6.9975 -63.3575,19.5 -47.1404,30.5925 -64.0598,86.2521 -37.791,124.3203 26.2701,38.0687 85.7825,44.1287 132.9238,13.5351 12.6413,-8.2044 23.5599,-18.5739 31.9668,-30.3593"
         transform="scale(0.26458333)" />
      <path
         id="ellipse2771"
         style="opacity:1;fill:none;fill-opacity:1;stroke:#262626;stroke-width:1;stroke-miterlimit:4;stroke-dasharray:none;stroke-opacity:1;stop-color:#000000"
         d="m 7481.0859,1827.3828 c -16.6742,-6.7849 -35.2416,-10.2618 -54.6425,-10.2324 -33.5817,0.052 -68.0886,10.5988 -97.836,29.9043 -72.292,46.915 -98.2378,132.2723 -57.9512,190.6504 40.2867,58.3774 131.5488,67.6692 203.8399,20.7539 2.2294,-1.4463 4.4267,-2.9383 6.5898,-4.4746"
         transform="scale(0.26458333)" />
      <path
         id="ellipse2782"
         style="opacity:1;fill:none;fill-opacity:1;stroke:#262626;stroke-width:1;stroke-miterlimit:4;stroke-dasharray:none;stroke-opacity:1;stop-color:#000000"
         d="m 7481.0859,1763.0137 c -14.097,-2.8831 -28.7521,-4.332 -43.7187,-4.3223 -48.1171,0.033 -97.5751,15.1293 -140.2051,42.7949 -103.4561,67.1398 -140.5867,189.2935 -82.9336,272.8379 52.4836,76.0528 166.7311,94.9027 266.8574,44.0293"
         transform="scale(0.26458333)" />
    </g>
  </g>
</svg>
