<?xml version="1.0" encoding="UTF-8" standalone="no"?>
<svg
   xmlns:dc="http://purl.org/dc/elements/1.1/"
   xmlns:cc="http://creativecommons.org/ns#"
   xmlns:rdf="http://www.w3.org/1999/02/22-rdf-syntax-ns#"
   xmlns:svg="http://www.w3.org/2000/svg"
   xmlns="http://www.w3.org/2000/svg"
   id="svg2880"
   version="1.1"
   viewBox="0 0 15.528 15.528"
   height="15.528mm"
   width="15.528mm">
  <defs
     id="defs2874" />
  <metadata
     id="metadata2877">
    <rdf:RDF>
      <cc:Work
         rdf:about="">
        <dc:format>image/svg+xml</dc:format>
        <dc:type
           rdf:resource="http://purl.org/dc/dcmitype/StillImage" />
        <dc:title></dc:title>
      </cc:Work>
    </rdf:RDF>
  </metadata>
  <g
     id="layer1">
    <g
       id="g2746"
       transform="translate(-1969.4825,-378.76121)">
      <rect
         y="378.76102"
         x="1969.4823"
         height="15.528396"
         width="15.528359"
         id="rect2724"
         style="opacity:1;fill:#0473f8;fill-opacity:1;stroke:none;stroke-width:1.14115;stroke-miterlimit:4;stroke-dasharray:none;stroke-opacity:1;stop-color:#000000" />
      <g
         style="font-size:3.175px;line-height:1.25;font-family:sans-serif;fill:#ffffff;stroke-width:0.36668"
         id="text2738"
         aria-label="R">
        <path
           id="path2740"
           style="font-style:normal;font-variant:normal;font-weight:bold;font-stretch:normal;font-size:3.175px;font-family:Montserrat;-inkscape-font-specification:'Montserrat Bold';fill:#ffffff;stroke-width:0.36668"
           d="m 1976.2622,387.63646 v -2.2225 h 0.9493 q 0.4635,0 0.7207,0.2159 0.2572,0.21273 0.2572,0.59055 0,0.24765 -0.1175,0.42863 -0.1175,0.1778 -0.3334,0.27305 -0.2159,0.0952 -0.5143,0.0952 h -0.6763 l 0.2286,-0.22543 v 0.84455 z m 1.4128,0 -0.5556,-0.80645 h 0.5493 l 0.562,0.80645 z m -0.8985,-0.7874 -0.2286,-0.2413 h 0.6477 q 0.2381,0 0.3556,-0.1016 0.1175,-0.10477 0.1175,-0.28575 0,-0.18415 -0.1175,-0.28575 -0.1175,-0.1016 -0.3556,-0.1016 h -0.6477 l 0.2286,-0.24447 z" />
      </g>
    </g>
  </g>
</svg>
